<?xml version="1.0" encoding="UTF-8"?>
<svg width="890px" height="150px" viewBox="0 0 890 150" version="1.1" xmlns="http://www.w3.org/2000/svg" xmlns:xlink="http://www.w3.org/1999/xlink">
    <!-- Generator: Sketch Beta 46.2 (44496) - http://www.bohemiancoding.com/sketch -->
    <title>lass-footer</title>
    <desc>Created with Sketch Beta.</desc>
    <defs>
        <path d="M0.0561320741,24.0879129 C0.0561320741,10.7909158 10.8884997,0.0109858684 24.2509271,0.0109858684 L24.2509271,0.0109858684 C37.6137286,0.0109858684 48.4457221,10.7909158 48.4457221,24.0879129 L48.4457221,24.0879129 C48.4457221,37.3858411 37.6137286,48.1659572 24.2509271,48.1659572 L24.2509271,48.1659572 C10.8884997,48.1659572 0.0561320741,37.3858411 0.0561320741,24.0879129" id="path-1"></path>
        <linearGradient x1="11.1115227%" y1="89.5594197%" x2="105.424225%" y2="-6.38012435%" id="linearGradient-3">
            <stop stop-color="#95CC28" offset="0%"></stop>
            <stop stop-color="#81CC2B" offset="100%"></stop>
        </linearGradient>
        <polygon id="path-4" points="0.0772751553 29.0643251 29.9571266 29.0643251 29.9571266 0.114141311 0.0772751553 0.114141311"></polygon>
        <polygon id="path-6" points="0.139581758 4.66657345 9.44384725 4.66657345 9.44384725 0.112279299 0.139581758 0.112279299"></polygon>
        <polygon id="path-8" points="0.136962261 12.6080529 29.8643216 12.6080529 29.8643216 0.113024104 0.136962261 0.113024104"></polygon>
        <polygon id="path-10" points="0.1163805 0.768824586 2.73138672 0.768824586 2.73138672 0.174284285 0.1163805 0.174284285"></polygon>
        <polygon id="path-12" points="0.151743707 1.47136156 3.07903137 1.47136156 3.07903137 0.0392884446 0.151743707 0.0392884446"></polygon>
        <polygon id="path-14" points="0.14369811 1.47136156 3.07005024 1.47136156 3.07005024 0.0392884446 0.14369811 0.0392884446"></polygon>
    </defs>
    <g id="Page-1" stroke="none" stroke-width="1" fill="none" fill-rule="evenodd">
        <g id="lass-footer">
            <rect id="Rectangle" x="0" y="0" width="890" height="150"></rect>
            <g id="Group-7" transform="translate(419.000000, 47.000000)">
                <g id="Group-3">
                    <path d="M26.1324742,55.9217942 C11.8000846,55.9217942 0.140330189,44.3184828 0.140330189,30.0556602 C0.140330189,15.7930238 11.8000846,4.18952618 26.1324742,4.18952618 C40.4646767,4.18952618 52.1246182,15.7930238 52.1246182,30.0556602 C52.1246182,44.3184828 40.4646767,55.9217942 26.1324742,55.9217942" id="path642" fill="#452A3C" fill-rule="nonzero" transform="translate(26.132474, 30.055660) scale(-1, 1) rotate(-180.000000) translate(-26.132474, -30.055660) "></path>
                    <g id="g646-Clipped" transform="translate(26.101413, 30.048214) scale(-1, 1) rotate(-180.000000) translate(-26.101413, -30.048214) translate(1.824291, 5.958438)">
                        <mask id="mask-2" fill="white">
                            <use xlink:href="#path-1"></use>
                        </mask>
                        <g id="path648"></g>
                        <g id="g646" mask="url(#mask-2)" fill-rule="nonzero" fill="url(#linearGradient-3)">
                            <g id="g652">
                                <g id="g654">
                                    <path d="M0.0561320741,24.0879129 C0.0561320741,10.7909158 10.8884997,0.0109858684 24.2509271,0.0109858684 L24.2509271,0.0109858684 C37.6137286,0.0109858684 48.4457221,10.7909158 48.4457221,24.0879129 L48.4457221,24.0879129 C48.4457221,37.3858411 37.6137286,48.1659572 24.2509271,48.1659572 L24.2509271,48.1659572 C10.8884997,48.1659572 0.0561320741,37.3858411 0.0561320741,24.0879129" id="path662"></path>
                                </g>
                            </g>
                        </g>
                    </g>
                    <g id="g666-Clipped" transform="translate(26.382075, 27.581047) scale(-1, 1) rotate(-180.000000) translate(-26.382075, -27.581047) translate(-0.000000, 0.000000)">
                        <g id="g672" transform="translate(0.414496, 25.932868)" fill-rule="nonzero" fill="#452A3C">
                            <path d="M25.6336472,0 C25.5801346,0 25.5273704,0.00521363245 25.4753547,0.015268495 C16.8310153,0.23461346 10.4517922,2.91404814 6.61591336,5.13002813 C4.42526561,6.39563741 2.80959741,7.64988842 1.83963517,8.47922838 C0.136213833,9.93606625 0.0529512565,10.2643389 0.0258207541,10.3721494 C-0.0787720106,10.7851435 0.150246852,11.2089374 0.553836464,11.3497055 C3.30767602,12.3106896 6.45013663,12.7583172 10.4433724,12.7583172 C13.0374226,12.7583172 15.7446726,12.5706265 18.3630467,12.3890803 C20.8642919,12.2155408 23.4506708,12.0364153 25.9614585,12.0170504 C28.4598971,12.0364153 31.0464631,12.2155408 33.5475212,12.3890803 C36.1660824,12.5706265 38.8731453,12.7583172 41.4671955,12.7583172 C45.4602441,12.7583172 48.6027048,12.3108758 51.3563572,11.3498917 C51.6158745,11.2595841 51.8128981,11.04657 51.882689,10.7821643 C51.9524798,10.5175725 51.8851213,10.2358501 51.7038147,10.0304702 C51.6158745,9.93066642 49.4980113,7.55864985 45.2948416,5.13058674 C41.4580273,2.91367574 35.0776815,0.233496254 26.4294129,0.0150822939 C26.3790811,0.00521363245 26.3278138,0 26.2759852,0 C26.2729915,0 25.9550968,0.00539983361 25.9550968,0.00539983361 C25.9550968,0.00539983361 25.636828,0 25.6336472,0" id="path674"></path>
                        </g>
                        <g id="g676" transform="translate(1.242051, 26.637490)" fill-rule="nonzero" fill="#51324B">
                            <path d="M0,9.86866143 C-0.000561320741,9.86940624 8.2733064,0.497715698 24.8060733,0.129782208 L24.8060733,0.118237736 C24.914034,0.119541144 25.0203107,0.12214796 25.127523,0.123823771 C25.2349223,0.12214796 25.3410119,0.119541144 25.4491597,0.118237736 L25.4491597,0.129782208 C41.9824879,0.497901899 50.2550459,9.86884763 50.2550459,9.86884763 C42.7956546,12.4715674 33.7903859,10.5555575 25.127523,10.4896423 C16.46466,10.5555575 7.45939132,12.4715674 0,9.86866143" id="path678"></path>
                        </g>
                        <g id="g680" transform="translate(8.859529, 13.986183)" fill="#452A3C">
                            <path d="M17.400943,0 C9.39482524,0 4.75195428,1.16897088 2.34688202,3.79012459 C-0.408267285,6.79261828 0.01515566,11.4202757 0.55102986,17.278909 L0.590322312,17.708475 C1.60911946,28.8831514 12.9709997,33.8450399 17.117476,33.8450399 C19.1863171,33.8450399 23.0115309,32.6388288 26.3192069,30.3334722 C29.3080527,28.2506261 33.0133309,24.5025829 33.6915935,18.476741 L33.7518419,17.9445781 C34.4027869,12.1879831 34.9652303,7.21641212 32.0489819,3.96925011 C29.616592,1.26114045 24.9623076,0 17.400943,0" id="path682"></path>
                        </g>
                        <g id="g684" transform="translate(9.697862, 14.687342)" fill="#A66757">
                            <path d="M16.2783015,32.3990017 C19.7575545,32.3990017 30.9149269,28.2968039 32.1088561,17.6928341 C33.3027853,7.08979533 34.4052193,0.0435710712 16.5619556,0.0435710712 C-1.28224368,0.0435710712 -0.509866339,5.90350775 0.496581749,16.9402091 C1.50265562,27.976538 12.7973645,32.3990017 16.2783015,32.3990017" id="path686"></path>
                        </g>
                        <g id="g688" transform="translate(9.682781, 14.616790)">
                            <g id="g702">
                                <g id="g700-Clipped">
                                    <mask id="mask-5" fill="white">
                                        <use xlink:href="#path-4"></use>
                                    </mask>
                                    <g id="path692"></g>
                                    <g id="g700" opacity="0.19999701" mask="url(#mask-5)">
                                        <g transform="translate(-0.187107, 0.000000)" id="g698">
                                            <g transform="translate(0.111460, 0.114197)">
                                                <path d="M17.400943,0.558603477 C-0.443069171,0.558603477 0.329308168,6.41854016 1.33575626,17.4550553 C1.81437574,22.7051831 4.62172787,26.4576951 7.80815861,28.9501838 C4.32329234,26.4735222 1.10299526,22.5545464 0.587328602,16.8964518 C-0.419119486,5.85993668 -1.19149683,0 16.6525153,0 C23.6422683,0 27.7243798,1.08164253 30.0329049,3.03433409 C27.6255874,1.43561094 23.6920387,0.558603477 17.400943,0.558603477" id="path696" fill="#FDDC9C"></path>
                                            </g>
                                        </g>
                                    </g>
                                </g>
                            </g>
                        </g>
                        <g id="g704" transform="translate(12.933764, 0.896632)" fill-rule="nonzero" fill="#452A3C">
                            <path d="M26.3820748,3.91022434 C26.1306031,5.03618275 25.8682792,5.9442858 25.5971613,6.62615445 C22.866523,13.4992116 18.2535892,13.5872848 13.3659824,13.5872848 L13.2398723,13.5872848 C8.2869652,13.5766713 3.61602821,13.4763089 0.906720103,6.57494913 C0.635976399,5.88470143 0.375523576,4.96300569 0.126858487,3.82028918 C3.89388198,1.41233579 8.37584099,0.0154546962 13.1857984,0.0154546962 C18.0546945,0.0154546962 22.5866111,1.44752781 26.3820748,3.91022434" id="path706"></path>
                        </g>
                        <g id="g708" transform="translate(13.933251, 0.729889)" fill-rule="nonzero" fill="#614755">
                            <path d="M24.5110057,3.53782202 C24.2629019,4.70269647 23.9921582,5.7033415 23.6993359,6.43976709 C21.2171756,12.6870022 17.1578911,12.8030055 12.2429667,12.7931368 C7.32841648,12.782151 3.26370589,12.6492033 0.807366332,6.39135479 C0.51529244,5.64692255 0.246794019,4.63398825 0.00187106914,3.45514871 C3.58029079,1.37509556 7.7430454,0.182290935 12.1862733,0.182290935 C16.6878785,0.182290935 20.901152,1.40712216 24.5110057,3.53782202" id="path710"></path>
                        </g>
                        <g id="g712" transform="translate(13.935179, 3.826396)" fill-rule="nonzero" fill="#6C5161">
                            <path d="M1.30974839,2.79301739 C3.76608796,9.05030734 7.83117276,9.18344117 12.7455358,9.19405463 C16.1626694,9.20131648 19.1662967,9.14713194 21.5139271,7.01382526 C19.0991253,9.64130982 15.9080169,9.703501 12.2410956,9.69661156 C7.32635831,9.68581189 3.26183482,9.55267807 0.805495263,3.29482951 C0.513421371,2.55039728 0.24492295,1.53746297 0,0.358623432 C0.180558172,0.253605979 0.362238985,0.15100914 0.54560376,0.0504605141 C0.779300295,1.14662674 1.03413991,2.08973561 1.30974839,2.79301739" id="path714"></path>
                        </g>
                        <g id="g716" transform="translate(22.390428, 0.638241)" fill-rule="nonzero" fill="#FFFFFF">
                            <path d="M1.30974839,0.372402318 C2.52519491,0.185083952 2.46083013,0.0877007459 3.72922789,0.0877007459 C4.93232535,0.0877007459 4.61761152,0.176332498 5.77393225,0.345216949 L7.27078755,11.1936689 L0,11.1936689 L1.30974839,0.372402318 Z" id="path718"></path>
                        </g>
                        <g id="g720" transform="translate(16.571833, 0.003090)" fill-rule="nonzero" fill="#452A3C">
                            <path d="M7.67138346,0.186201159 C7.63265232,0.181918532 7.59279855,0.180615124 7.55294478,0.182290935 C7.55294478,0.182290935 7.40681428,0.18955278 7.35461145,0.1927182 C7.16525925,0.204821275 6.98750769,0.287866992 6.85746838,0.425097246 L1.10224683,6.50084107 C0.849278281,6.76785353 0.829632055,7.17842709 1.0554701,7.46815609 L1.93449838,8.59579031 L0.396105336,9.51729985 C0.114509431,9.6861843 -0.0233883642,10.0179948 0.0561320741,10.3352815 C0.124238991,10.6084386 0.339599048,10.8158667 0.607536148,10.8795475 C0.66928143,10.9078501 0.922437084,11.0389357 1.47889304,11.5046248 C1.76647637,11.7453829 2.08586787,12.0339947 2.42827352,12.3617088 C4.14161153,13.9954377 6.0053835,15.7192881 6.02371998,15.7364186 C6.14365551,15.8472082 6.29446368,15.9140545 6.45144638,15.931185 C6.55903285,15.9429156 6.66961304,15.9317436 6.77570266,15.8956206 C7.0365297,15.8064302 7.22737875,15.5820578 7.2719102,15.3111351 C7.28444636,15.2355374 7.38960044,14.5542274 7.25769007,13.8976821 L7.22681743,13.7451834 C6.89470266,12.1149922 6.85671995,11.6509789 6.8634558,11.5191485 C6.90686461,10.6737952 6.96599039,9.82434556 7.03989762,8.99332978 C7.32130642,5.82046203 7.76119477,3.47544463 8.08077338,2.06701907 C8.18087558,1.62590852 8.26226709,1.30731834 8.31278596,1.11739316 C8.37415702,0.887993328 8.32176709,0.642766401 8.17152024,0.458054851 C8.04634571,0.304252694 7.86597465,0.207428091 7.67138346,0.186201159" id="path722"></path>
                        </g>
                        <g id="g724" transform="translate(17.253033, 0.924283)" fill-rule="nonzero" fill="#6E5766">
                            <path d="M5.61320741,8.00664984 C5.54210678,8.80731483 5.48110993,9.65806792 5.43489452,10.5594677 C5.40851244,11.059604 5.7780486,12.7974195 5.84260048,13.1225267 C5.95168381,13.6651169 5.85195583,14.269712 5.85195583,14.269712 C5.85195583,14.269712 3.99398418,12.5512615 2.26586472,10.9037537 C1.87256599,10.5272549 1.54905814,10.2393879 1.27962418,10.0135259 C0.365419802,9.24842537 0.10122484,9.23427408 0.10122484,9.23427408 L0.739820736,8.8510721 L2.36091504,7.88040546 L2.04657542,7.47672134 L0.965471674,6.09045371 L1.3099355,5.72698905 L6.72088034,0.0148960927 C6.78337404,0.0109858684 6.84586775,0.00837905216 6.90836146,0.00521363245 C6.85316492,0.212641724 6.76990235,0.540914367 6.66961304,0.981652511 C6.36388034,2.3291903 5.90341023,4.73360587 5.61320741,8.00664984" id="path726"></path>
                        </g>
                        <g id="g728" transform="translate(27.292760, 0.003090)" fill-rule="nonzero" fill="#452A3C">
                            <path d="M0.748427654,0.186201159 C0.787158785,0.181918532 0.827012558,0.180615124 0.866866331,0.182290935 C0.866866331,0.182290935 1.01299683,0.18955278 1.06519966,0.1927182 C1.25455186,0.204821275 1.43211632,0.287866992 1.56234273,0.425097246 L7.31756428,6.50084107 C7.57053283,6.76785353 7.59017906,7.17842709 7.36434101,7.46815609 L6.48512562,8.59579031 L8.02370577,9.51729985 C8.30511457,9.6861843 8.44319947,10.0179948 8.36349193,10.3352815 C8.29557212,10.6084386 8.08002496,10.8158667 7.81208786,10.8795475 C7.75034257,10.9078501 7.49737403,11.0389357 6.94091807,11.5046248 C6.65333474,11.7453829 6.33394324,12.0339947 5.99135048,12.3617088 C4.27819958,13.9954377 2.41442761,15.7192881 2.39590403,15.7364186 C2.2759685,15.8472082 2.12534743,15.9140545 1.96836473,15.931185 C1.86077826,15.9429156 1.75019807,15.9317436 1.64410845,15.8956206 C1.38328141,15.8064302 1.19243236,15.5820578 1.14790091,15.3111351 C1.13536475,15.2355374 1.03021067,14.5542274 1.16212104,13.8976821 L1.19280657,13.7451834 C1.52492135,12.1149922 1.56309116,11.6509789 1.55635531,11.5191485 C1.5129465,10.6737952 1.45382072,9.82434556 1.37991349,8.99332978 C1.09850469,5.82046203 0.658616336,3.47544463 0.33885062,2.06701907 C0.238935529,1.62590852 0.157544021,1.30731834 0.107025155,1.11739316 C0.0456540869,0.887993328 0.0978569158,0.642766401 0.248103767,0.458054851 C0.373465399,0.304252694 0.553649357,0.207428091 0.748427654,0.186201159" id="path730"></path>
                        </g>
                        <g id="g732" transform="translate(28.108434, 0.924283)" fill-rule="nonzero" fill="#6E5766">
                            <path d="M1.30974839,8.00664984 C1.38066192,8.80731483 1.44165877,9.65806792 1.48806128,10.5594677 C1.51444336,11.059604 1.1449072,12.7974195 1.08016821,13.1225267 C0.971271988,13.6651169 1.07081287,14.269712 1.07081287,14.269712 C1.07081287,14.269712 2.92897162,12.5512615 4.65690397,10.9037537 C5.05038981,10.5272549 5.37389766,10.2393879 5.64314451,10.0135259 C6.557536,9.24842537 6.82173096,9.23427408 6.82173096,9.23427408 L6.18294796,8.8510721 L4.56185366,7.88040546 L4.87638038,7.47672134 L5.95748413,6.09045371 L5.61283319,5.72698905 L0.202075467,0.0148960927 C0.139581758,0.0109858684 0.0770880484,0.00837905216 0.0145943393,0.00521363245 C0.0697908788,0.212641724 0.153053455,0.540914367 0.253342761,0.981652511 C0.559075458,2.3291903 1.01954557,4.73360587 1.30974839,8.00664984" id="path734"></path>
                        </g>
                        <g id="g736" transform="translate(21.782517, 10.512544)" fill-rule="nonzero" fill="#452A3C">
                            <path d="M4.30345901,0 C6.66325141,0.0050274313 8.50943532,1.43170071 8.50569318,3.24827922 L8.4980218,6.73601313 C8.49446677,8.54737801 6.64753443,9.96604464 4.29316813,9.96604464 C1.92177511,9.96138961 0.0759654069,8.53508873 0.0797075452,6.71851022 L0.086630501,3.23096251 C0.0905597462,1.41903903 1.93749209,0 4.29110996,0 L4.30345901,0 Z" id="path738"></path>
                        </g>
                        <g id="g740" transform="translate(22.619933, 11.324623)" fill-rule="nonzero" fill="#FDDC9C">
                            <path d="M0.187106914,2.42061507 C0.190287731,1.14662674 1.65720593,0.117120529 3.46391029,0.121030753 C5.27098886,0.124754777 6.73322939,1.16040562 6.73023568,2.43402155 L6.72293851,5.92175546 C6.72031901,7.19574379 5.25396213,8.22525 3.44594803,8.22078117 C1.64036631,8.21724335 0.177190247,7.1814063 0.179996851,5.90797658 L0.187106914,2.42061507 Z" id="path742"></path>
                        </g>
                        <g id="g744" transform="translate(20.674489, 7.201664)" fill-rule="nonzero" fill="#452A3C">
                            <path d="M0.748427654,0 C0.625124198,0 0.502194956,0.0355644214 0.395731122,0.10445885 C0.215547164,0.222510385 0.107212261,0.423235235 0.107212261,0.637925171 L0.107212261,5.19221932 C0.107212261,5.41659172 0.225463831,5.62457841 0.418745273,5.73946453 C0.519970113,5.7997937 0.634292437,5.8307031 0.748427654,5.8307031 C0.852459098,5.8307031 0.955929221,5.80537974 1.05060532,5.75510543 L5.12018069,3.59088935 C5.15311151,3.58064829 5.18454547,3.56724181 5.21485679,3.5504837 L5.40084106,3.45198329 L9.73255322,5.75510543 C9.8268551,5.80537974 9.93069944,5.8307031 10.0343567,5.8307031 L10.0526931,5.8307031 C10.1670155,5.8307031 10.2807765,5.7997937 10.3820013,5.74020933 C10.575657,5.62495082 10.6940956,5.41696412 10.6940956,5.19221932 L10.6940956,0.637925171 C10.6940956,0.422676631 10.5851994,0.222137983 10.4046412,0.10445885 C10.2983645,0.0351920191 10.1758095,0 10.0526931,0 C10.0354793,0 10.0190139,0.000372402318 10.0023614,0.00186201159 C9.92620887,0.00465502898 9.85099189,0.0214131333 9.77970416,0.0523225257 L5.40046685,1.94021608 L1.02197796,0.0523225257 C0.940212241,0.0167581043 0.85358174,0 0.767138346,0 L0.748427654,0 Z" id="path746"></path>
                        </g>
                        <g id="g748" transform="translate(21.353575, 7.729339)" fill-rule="nonzero" fill="#81CC2B">
                            <polygon id="path750" points="9.35534568 4.65502898 9.35534568 4.66452524 4.72145586 2.2008977 4.23366813 2.46027592 4.22319015 2.45543469 0.0694166649 4.66452524 0.0694166649 0.110231086 0.0879402494 0.117865334 0.0879402494 0.110231086 4.72145586 2.10742472 9.35534568 0.110231086 9.35534568 0.117865334 9.37368216 0.110231086 9.37368216 4.66452524"></polygon>
                        </g>
                        <g id="g752" transform="translate(21.283410, 7.727347)">
                            <g id="g766">
                                <g id="g764-Clipped">
                                    <mask id="mask-7" fill="white">
                                        <use xlink:href="#path-6"></use>
                                    </mask>
                                    <g id="path756"></g>
                                    <g id="g764" opacity="0.19999701" mask="url(#mask-7)">
                                        <g transform="translate(-0.187107, 0.000000)" id="g762">
                                            <g transform="translate(0.143885, 0.081277)">
                                                <polygon id="path760" fill="#42BA3D" fill-rule="nonzero" points="0.561320741 0.186201159 0.561320741 4.33420438 4.71528133 2.12567243 4.72557221 2.12976886 5.21317283 1.87039064 9.48706895 4.14297579 9.48706895 4.58520354 9.46873247 4.57570728 9.46873247 4.58520354 4.83484265 2.12176221 4.34705492 2.38095422 4.33657694 2.37629919 0.182803455 4.58520354 0.182803455 0.0309093924 0.201327039 0.0385436399 0.201327039 0.0309093924"></polygon>
                                            </g>
                                        </g>
                                    </g>
                                </g>
                            </g>
                        </g>
                        <g id="g768" transform="translate(24.017566, 7.735894)" fill-rule="nonzero" fill="#452A3C">
                            <path d="M2.05817605,0 C0.979317586,0 0.101411947,0.961542786 0.101411947,2.14392015 C0.101411947,3.3253665 0.979317586,4.28653688 2.05817605,4.28653688 C3.13591187,4.28653688 4.01381751,3.3253665 4.01381751,2.14392015 C4.01381751,0.961542786 3.13591187,0 2.05817605,0" id="path770"></path>
                        </g>
                        <g id="g772" transform="translate(24.583358, 8.203948)" fill-rule="nonzero" fill="#81CC2B">
                            <path d="M2.8066037,1.67581043 C2.8066037,0.843677452 2.21852667,0.170187859 1.49236474,0.170187859 C0.765828597,0.170187859 0.177190247,0.843677452 0.177190247,1.67581043 C0.177190247,2.5064538 0.765828597,3.1806882 1.49236474,3.1806882 C2.21852667,3.1806882 2.8066037,2.5064538 2.8066037,1.67581043" id="path774"></path>
                        </g>
                        <g id="g776" transform="translate(12.229456, 14.332945)" fill-rule="nonzero" fill="#452A3C">
                            <path d="M13.8459116,0 C21.4581693,0 27.6514081,6.16288596 27.6514081,13.7386663 L27.6514081,20.5891932 C27.6514081,28.1646011 21.4581693,34.3278595 13.8459116,34.3278595 C6.23309261,34.3278595 0.0400408795,28.1646011 0.0400408795,20.5891932 L0.0400408795,13.7386663 C0.0400408795,6.16288596 6.23309261,0 13.8459116,0" id="path778"></path>
                        </g>
                        <g id="g780" transform="translate(13.180352, 15.223769)" fill-rule="nonzero" fill="#FDDC9C">
                            <path d="M0,12.84788 C0,5.76069146 5.77299671,0.0147098916 12.8950343,0.0147098916 C20.0165105,0.0147098916 25.7895072,5.76069146 25.7895072,12.84788 L25.7895072,19.6984068 C25.7895072,26.7857815 20.0165105,32.5310183 12.8950343,32.5310183 C5.77299671,32.5310183 0,26.7857815 0,19.6984068 L0,12.84788 Z" id="path782"></path>
                        </g>
                        <g id="g784" transform="translate(23.010407, 17.990960)" fill-rule="nonzero" fill="#452A3C">
                            <path d="M0.187106914,1.86201159 C0.266814459,1.92978881 0.367477978,1.96628424 0.47225785,1.96702904 C0.600987406,1.96721525 0.724103755,1.91042389 0.809237401,1.81322689 C0.81597325,1.80391683 1.61660373,0.915923502 3.06574678,0.919088921 C4.6142436,0.921881939 5.22963823,1.7028096 5.2910093,1.78455191 C5.37314924,1.90539646 5.50992439,1.97727011 5.65343539,1.97708391 C5.74455646,1.97745631 5.8321225,1.95101575 5.90602973,1.89925182 C6.00295111,1.83296421 6.06825142,1.73316039 6.0893945,1.61752947 C6.11184733,1.50264335 6.08733633,1.38459182 6.01997784,1.29093264 C5.98573727,1.23935491 5.15647943,0.0428262666 3.06743074,0.0391022434 C1.19523896,0.0355644214 0.178687102,1.19131502 0.138646223,1.24009972 C-0.0198333328,1.42332166 0.000561320741,1.69964418 0.187106914,1.86201159" id="path786"></path>
                        </g>
                        <g id="g788" transform="translate(30.250284, 26.499850)" fill-rule="nonzero" fill="#452A3C">
                            <path d="M2.99371062,1.67581043 C2.99371062,0.372774721 2.36185057,0.0698254347 1.58348581,0.0698254347 C0.804372621,0.0698254347 0.17400943,0.372774721 0.17400943,1.67581043 C0.17400943,2.97884614 0.804372621,4.03535152 1.58348581,4.03535152 C2.36185057,4.03535152 2.99371062,2.97884614 2.99371062,1.67581043" id="path790"></path>
                        </g>
                        <g id="g792" transform="translate(18.906478, 26.499850)" fill-rule="nonzero" fill="#452A3C">
                            <path d="M0,1.67581043 C0,0.372774721 0.63167294,0.0698254347 1.40966349,0.0698254347 C2.18915089,0.0698254347 2.81970119,0.372774721 2.81970119,1.67581043 C2.81970119,2.97884614 2.18915089,4.03535152 1.40966349,4.03535152 C0.63167294,4.03535152 0,2.97884614 0,1.67581043" id="path794"></path>
                        </g>
                        <g id="g796" transform="translate(30.476871, 31.318159)" fill-rule="nonzero" fill="#452A3C">
                            <path d="M0.187106914,0 C0.187106914,0 0.233135214,0.0182477136 0.303300307,0.0579085605 C0.338476407,0.0785768891 0.381885211,0.103341643 0.426416656,0.124382374 C0.473193384,0.146540312 0.51529244,0.172049871 0.571611621,0.194580211 C0.623440236,0.219344965 0.675643065,0.248019944 0.731588032,0.267571066 C0.786036144,0.293080624 0.842729539,0.307604315 0.897177651,0.326969235 C0.953122618,0.338513707 1.00495123,0.357878628 1.05640563,0.36141645 C1.08278771,0.363650864 1.10879557,0.371657514 1.13424211,0.369795502 L1.17241192,0.371657514 L1.19205815,0.372774721 L1.20272324,0.37426433 L1.20515563,0.37426433 L1.20852355,0.37426433 L1.2096462,0.37426433 L1.21039462,0.374636732 C1.19823267,0.374636732 1.23920909,0.373519525 1.18251569,0.376126341 L1.30469651,0.367747289 L1.33500783,0.365885278 C1.33744022,0.364395668 1.34417607,0.363650864 1.34810531,0.362161254 C1.35540248,0.360485444 1.36531915,0.35825103 1.37448739,0.357878628 C1.3909528,0.357878628 1.41527669,0.353782202 1.44390405,0.34540315 C1.46916349,0.3373965 1.49797795,0.33572069 1.52492135,0.326596833 C1.5776855,0.307604315 1.63606285,0.292708222 1.68901411,0.267012462 C1.74645593,0.248019944 1.79753612,0.218227758 1.85067448,0.194580211 C1.90512259,0.173167078 1.95115089,0.142630088 1.99792762,0.121775558 C2.04507857,0.0964522004 2.08455812,0.074852866 2.11767605,0.0579085605 C2.18746693,0.0193649205 2.23499208,0 2.23499208,0 C2.23499208,0 2.23948265,0.0472950944 2.23218548,0.129409806 C2.22657227,0.171305066 2.22376567,0.22325519 2.20430655,0.275577715 C2.18746693,0.33087946 2.17362101,0.397167072 2.13938045,0.459730662 C2.07763517,0.587650858 1.97491347,0.732142958 1.81474995,0.849263487 C1.77863832,0.881103885 1.73036474,0.901958415 1.68545908,0.928026577 L1.6156682,0.965266809 L1.52791506,0.992452178 L1.43866506,1.01870654 C1.40554713,1.0278304 1.37804242,1.03248543 1.36026726,1.03248543 L1.23920909,1.04626431 L1.2096462,1.04812632 L1.20852355,1.04812632 L1.20478142,1.04812632 L1.20047796,1.04626431 L1.18943865,1.04589191 L1.16792135,1.0444023 L1.12694494,1.04011967 L1.04368236,1.03174062 C0.986240541,1.0287614 0.937031423,1.00306564 0.883705953,0.989100557 C0.830941803,0.976438878 0.781358471,0.953908538 0.736827026,0.927095571 C0.692108473,0.90121361 0.64383489,0.881103885 0.607723255,0.84814628 C0.448308165,0.730653348 0.34614779,0.587278456 0.284402509,0.458241053 C0.249226409,0.397167072 0.233135214,0.326969235 0.214798737,0.272412296 C0.194778297,0.217110552 0.194778297,0.169443055 0.191410373,0.129409806 C0.184113203,0.049157106 0.187106914,0 0.187106914,0" id="path798"></path>
                        </g>
                        <g id="g800" transform="translate(32.149494, 28.584055)" fill-rule="nonzero" fill="#452A3C">
                            <polygon id="path802" points="0 0.558603477 1.56271694 1.00027263 0.958174504 0.184897751"></polygon>
                        </g>
                        <g id="g804" transform="translate(18.316830, 28.584055)" fill-rule="nonzero" fill="#452A3C">
                            <polygon id="path806" points="1.68396222 0.558603477 0.12124528 1.00027263 0.725974825 0.184897751"></polygon>
                        </g>
                        <g id="g808" transform="translate(10.345794, 28.356220)" fill="#452A3C">
                            <path d="M7.48427654,2.23441391 C11.2466224,1.84320527 16.2691332,2.52600492 19.0014555,5.53706387 C21.667729,1.45572066 30.1880165,0.174656687 30.5841219,0.117492931 C30.5944128,0.116003322 30.6054521,0.114513713 30.6159301,0.113396506 C30.860853,0.0880731483 31.1042791,0.177635906 31.2741722,0.356389019 C31.4509882,0.543334982 31.5256439,0.804202806 31.4736281,1.05576057 L29.2401329,11.8829856 C29.1888656,12.1313779 29.0204694,12.3402956 28.7877084,12.4438235 L22.3980073,15.2882324 C22.3727479,15.2995906 22.3471142,15.3094593 22.3207321,15.3182108 L14.4534478,17.8814559 C14.3999352,17.899145 14.3447386,17.9108757 14.289355,17.9164617 C14.1722261,17.9285648 14.0524776,17.9145997 13.9405877,17.8747527 L2.54035057,13.815195 C2.27428453,13.7206048 2.07931913,13.4923222 2.02842605,13.2158135 L1.10093708,8.18577536 L0.593877344,6.81719684 C0.517350616,6.67456675 0.460470114,6.49432403 0.375523576,6.21353268 C0.346896218,6.11857009 0.304984269,5.98022263 0.281783012,5.91821764 C0.113012576,5.6217854 0.153427669,5.24584526 0.392176091,4.99149447 C1.70828612,3.58977215 4.35977819,2.55859013 7.48427654,2.23441391 C7.48427654,2.23441391 7.48408944,2.23441391 7.48427654,2.23441391" id="path810"></path>
                        </g>
                        <g id="g812" transform="translate(11.282059, 29.243226)" fill="#A66757">
                            <path d="M0.374213827,5.58603477 L0.373839613,5.58603477 L0.931231109,7.08960913 L1.87106914,12.1864935 L13.270745,16.2458649 L21.1382165,13.6820612 L27.5282918,10.8376523 L29.7619741,0.0104272649 C29.7619741,0.0104272649 19.6000105,1.48197503 18.2191615,6.16660999 C14.7281207,0.459172058 3.11458168,1.36131667 0.034614779,4.6423673 C0.120496852,4.75725341 0.284402509,5.4774795 0.374213827,5.58603477" id="path814"></path>
                        </g>
                        <g id="g816" transform="translate(11.179636, 29.140480)">
                            <g id="g834">
                                <g id="g832-Clipped">
                                    <mask id="mask-9" fill="white">
                                        <use xlink:href="#path-8"></use>
                                    </mask>
                                    <g id="path820"></g>
                                    <g id="g832" opacity="0.19999701" mask="url(#mask-9)">
                                        <g transform="translate(-0.187107, -0.186201)">
                                            <g id="g826" transform="translate(0.144989, 2.161870)">
                                                <path d="M1.12264148,3.35162086 C1.20833645,3.46650698 1.37242921,4.18654686 1.46224053,4.29528834 L1.46186632,4.29528834 L2.0190707,5.7988627 L2.91044804,10.6324586 L2.01551567,10.3136822 L1.07567765,5.21679787 L0.518473257,3.71303731 L0.518660364,3.71303731 C0.428849046,3.60448204 0.26494339,2.88425595 0.179061316,2.76936984 C2.81539773,-0.0387298411 11.7014793,-1.10361427 16.3971144,2.22603486 C11.5407544,-0.378733158 3.5913301,0.721901894 1.12264148,3.35162086" id="path824" fill="#FDDC9C"></path>
                                            </g>
                                            <g id="g830" transform="translate(18.516643, 0.148384)">
                                                <path d="M0.935534568,6.88944289 C0.708573882,6.51815778 0.446624203,6.17536144 0.154924524,5.85900567 C2.02561945,1.52833911 11.534767,0.15100914 11.534767,0.15100914 L11.3740422,0.931005796 C8.70346519,1.46577552 2.0351619,3.15890266 0.935534568,6.88944289" id="path828" fill="#FDDC9C"></path>
                                            </g>
                                        </g>
                                    </g>
                                </g>
                            </g>
                        </g>
                        <g id="g836" transform="translate(12.079639, 40.238181)" fill-rule="nonzero" fill="#452A3C">
                            <path d="M0.748427654,0.186201159 C0.325378923,0.306673309 0.0144072323,0.69229591 0.00860691802,1.15165417 L0.00711006272,1.20676971 C0.00542610049,1.25443721 0.00392924518,1.3017323 0.00430345901,1.3499584 C0.0205817605,9.93178363 4.55044014,14.559441 13.1038456,14.7305599 C15.1678219,14.7717104 17.0267291,14.561303 18.6292998,14.1047378 C24.0430513,12.5620612 26.7804254,8.25262157 26.7662053,1.29484286 C26.7665795,1.24903738 26.7647085,1.19354943 26.7626503,1.13880629 L26.7607792,1.08909058 C26.7469333,0.537562746 26.2926377,0.0973832062 25.7378657,0.0981280108 L1.02815249,0.147098916 C0.930856895,0.147285117 0.837116331,0.161064003 0.748427654,0.186201159" id="path838"></path>
                        </g>
                        <g id="g840" transform="translate(12.756162, 41.296828)" fill-rule="nonzero" fill="#614755">
                            <path d="M25.2594333,0 C25.2613044,0.0610739802 25.2652336,0.120658351 25.2648594,0.182663337 C25.2770214,6.19565737 23.0401582,12.8676173 12.4476616,12.6559066 C2.59536,12.4585334 0.16427987,6.35597657 0.152679241,0.342982535 C0.152305028,0.281536153 0.156234273,0.221951782 0.156795594,0.1606916 L25.2594333,0 Z" id="path842"></path>
                        </g>
                        <g id="g844" transform="translate(16.222841, 41.188999)" fill-rule="nonzero" fill="#806B72">
                            <path d="M8.41981111,12.2892765 C18.8384854,12.4978218 21.1733926,6.04576543 21.235512,0.111906897 L21.7927164,0.107810471 C21.7945875,0.168884451 21.7985168,0.228655023 21.7981425,0.290660009 C21.8103045,6.30365404 19.5734413,12.975614 8.98094474,12.7637171 C4.82230648,12.6804851 1.98595278,11.5450305 0.0956116328,9.80833226 C1.97248108,11.2746664 4.65334894,12.2142374 8.41981111,12.2892765" id="path846"></path>
                        </g>
                        <g id="g848" transform="translate(11.846485, 39.603030)" fill-rule="nonzero" fill="#452A3C">
                            <path d="M0.748427654,0.186201159 C0.325378923,0.306673309 0.0144072323,0.691923507 0.00879402494,1.15090936 L0.0069229558,1.20639731 C0.00523899358,1.25611302 0.00374213827,1.30527013 0.00392924518,1.35535824 C0.00804559728,3.46669318 0.303300307,5.2376524 0.906720103,6.76431571 C1.04293394,7.10916025 1.35708644,7.35289757 1.7266226,7.40037887 C5.89143539,7.9357072 9.96606264,8.2086781 13.8380531,8.21202972 C17.6746804,8.21556754 21.6690388,7.92844535 25.7109223,7.35904221 C25.7584475,7.35252517 25.8044758,7.34247031 25.8493814,7.32980863 C26.174199,7.23726665 26.4355874,6.98887431 26.5407415,6.66264987 C27.0173028,5.18030245 27.2373405,3.47581704 27.2328499,1.29763588 C27.2328499,1.24810637 27.231166,1.19280463 27.2289207,1.13768908 L27.2270496,1.08648376 C27.2120811,0.53495593 26.7581597,0.0962659993 26.2041361,0.0973832062 L1.02777828,0.147098916 C0.930856895,0.147285117 0.837116331,0.160877801 0.748427654,0.186201159" id="path850"></path>
                        </g>
                        <g id="g852" transform="translate(12.872093, 40.579842)" fill-rule="nonzero" fill="#7FCB2B">
                            <path d="M-6.77626358e-21,0.372402318 C-0.000561320741,0.309652528 0.00355503136,0.248764749 0.00430345901,0.186759763 L25.1804742,0.136857852 C25.1821582,0.198862838 25.1862745,0.259750617 25.1859003,0.322686609 C25.1894553,2.12548623 25.0341566,3.84672975 24.5422525,5.37599987 C20.8476394,5.89643211 16.9006191,6.22228413 12.8132685,6.21856011 C8.68101236,6.21520849 4.64193542,5.90518356 0.831503124,5.41547451 C0.238187101,3.91432077 0.00355503136,2.20629753 -6.77626358e-21,0.372402318" id="path854"></path>
                        </g>
                        <g id="g856" transform="translate(0.128260, 32.901241)" fill-rule="nonzero" fill="#452A3C">
                            <path d="M27.3176094,0 C26.9752037,0 26.6327981,0.00130340811 26.2917022,0.00391022434 C25.9627682,0.00130340811 25.6214852,0 25.2785182,0 C15.3240562,0 7.05149825,1.12539981 0.690050297,3.34547623 C0.405834896,3.44434904 0.198333328,3.68957597 0.148375782,3.98526341 C0.0984182365,4.28076465 0.213863202,4.58017611 0.44980502,4.76637727 C0.803811301,5.04623761 9.29116801,11.6036838 25.8231865,12.0058783 C25.8737053,12.015747 25.9251597,12.0211468 25.9771755,12.0211468 C25.9807305,12.0211468 26.2980638,12.0153746 26.2980638,12.0153746 C26.2980638,12.0153746 26.6159585,12.0211468 26.6197006,12.0211468 C26.6734003,12.0211468 26.7267257,12.015747 26.7785544,12.0058783 C43.3068307,11.6021942 51.7925034,5.04623761 52.1465097,4.76637727 C52.3822644,4.58017611 52.4977094,4.28076465 52.4477518,3.98526341 C52.3979814,3.68957597 52.1904798,3.44434904 51.9060773,3.34547623 C45.5451907,1.12577221 37.2715101,0 27.3183578,0 L27.3176094,0 Z" id="path858"></path>
                        </g>
                        <g id="g860" transform="translate(1.054664, 33.671499)" fill-rule="nonzero" fill="#614755">
                            <path d="M50.7059736,3.35162086 C50.7059736,3.35162086 42.2266625,10.0481593 25.6931472,10.4159066 L25.6931472,10.4280097 C25.5849994,10.4265201 25.4790968,10.4237271 25.3716975,10.4222375 C25.2644852,10.4237271 25.1582085,10.4265201 25.0502478,10.4280097 L25.0502478,10.4159066 C8.5169196,10.0481593 0.0374213827,3.35162086 0.0374213827,3.35162086 C7.49681271,0.748714861 16.7086474,-0.00968246027 25.3716975,0.0566051524 C34.0347476,-0.00968246027 43.2465823,0.748714861 50.7059736,3.35162086" id="path862"></path>
                        </g>
                        <g id="g864" transform="translate(24.651334, 22.809641)">
                            <g id="g878">
                                <g id="g876-Clipped">
                                    <mask id="mask-11" fill="white">
                                        <use xlink:href="#path-10"></use>
                                    </mask>
                                    <g id="path868"></g>
                                    <g id="g876" opacity="0.39999402" mask="url(#mask-11)" fill-rule="nonzero" fill="#C0935C">
                                        <g id="g874" transform="translate(0.116306, 0.127641)">
                                            <path d="M0,0.558603477 C0,0.558603477 1.99268863,0.352664995 2.61500622,0.641090591 C2.61500622,0.641090591 1.2042201,-0.639787183 0,0.558603477" id="path872"></path>
                                        </g>
                                    </g>
                                </g>
                            </g>
                        </g>
                        <g id="g880" transform="translate(17.354165, 24.113049)">
                            <g id="g894">
                                <g id="g892-Clipped">
                                    <mask id="mask-13" fill="white">
                                        <use xlink:href="#path-12"></use>
                                    </mask>
                                    <g id="path884"></g>
                                    <g id="g892" opacity="0.80000299" mask="url(#mask-13)" fill-rule="nonzero" fill="#F577C1">
                                        <g id="g890" transform="translate(0.085246, 0.010725)">
                                            <path d="M2.99371062,0.744804636 C2.99371062,0.349127173 2.33883642,0.0284887773 1.53034745,0.0284887773 C0.721858473,0.0284887773 0.0664229543,0.349127173 0.0664229543,0.744804636 C0.0664229543,1.1399235 0.721858473,1.46074809 1.53034745,1.46074809 C2.33883642,1.46074809 2.99371062,1.1399235 2.99371062,0.744804636" id="path888"></path>
                                        </g>
                                    </g>
                                </g>
                            </g>
                        </g>
                        <g id="g896" transform="translate(31.574290, 24.113049)">
                            <g id="g910">
                                <g id="g908-Clipped">
                                    <mask id="mask-15" fill="white">
                                        <use xlink:href="#path-14"></use>
                                    </mask>
                                    <g id="path900"></g>
                                    <g id="g908" opacity="0.80000299" mask="url(#mask-15)" fill-rule="nonzero" fill="#F577C1">
                                        <g id="g906" transform="translate(0.076377, 0.010725)">
                                            <path d="M2.99371062,0.744804636 C2.99371062,0.349127173 2.33846221,0.0284887773 1.53016034,0.0284887773 C0.722045579,0.0284887773 0.067171382,0.349127173 0.067171382,0.744804636 C0.067171382,1.1399235 0.722045579,1.46074809 1.53016034,1.46074809 C2.33846221,1.46074809 2.99371062,1.1399235 2.99371062,0.744804636" id="path904"></path>
                                        </g>
                                    </g>
                                </g>
                            </g>
                        </g>
                    </g>
                </g>
                <path d="M45.5366544,51.8104738 L45.5589499,51.678173 L45.7428873,51.6399527 L45.8655123,50.8608479 L45.6620663,50.8608479 L45.5979669,51.0607691 L45.4669811,51.0607691 L45.5255067,50.6932668 L46.4674895,50.6932668 L46.4089639,51.0607691 L46.2779781,51.0607691 L46.2779781,50.8608479 L46.0745322,50.8608479 L45.9519072,51.6399527 L46.1246969,51.678173 L46.1024015,51.8104738 L45.5366544,51.8104738 Z M47.3816029,51.6399527 L47.4819325,50.9990287 L47.1558615,51.4929518 L47.013728,51.5105919 L46.8409383,51.0107888 L46.7433957,51.6399527 L46.9078246,51.678173 L46.8855292,51.8104738 L46.4033901,51.8104738 L46.4228986,51.678173 L46.5733929,51.6399527 L46.6960178,50.8549678 L46.5566713,50.8343877 L46.5761798,50.7020869 L46.9579894,50.6932668 L47.1335661,51.2548103 L47.4875063,50.7020869 L47.8525943,50.6932668 L47.8330858,50.8255677 L47.6881654,50.8549678 L47.5655404,51.6399527 L47.6965262,51.678173 L47.6742307,51.8104738 L47.1976655,51.8104738 L47.2199609,51.678173 L47.3816029,51.6399527 Z" id="™" fill="#452A3C"></path>
            </g>
        </g>
    </g>
</svg>