<?xml version="1.0" encoding="UTF-8"?>
<svg width="890px" height="300px" viewBox="0 0 890 300" version="1.1" xmlns="http://www.w3.org/2000/svg" xmlns:xlink="http://www.w3.org/1999/xlink">
    <!-- Generator: Sketch Beta 46.2 (44496) - http://www.bohemiancoding.com/sketch -->
    <title>lass</title>
    <desc>Created with Sketch Beta.</desc>
    <defs>
        <polygon id="path-1" points="47.5505966 74.5532172 22.9116472 74.5532172 22.9116472 9.67646055 33.127797 7.27361771 33.127797 0.0650891996 0.0755477301 0.665799909 0.0755477301 7.27361771 10.2916975 9.67646055 10.2916975 74.5532172 0.0755477301 76.95606 0.0755477301 84.1645885 58.3676964 84.1645885 58.3676964 60.7368709 49.9543966 60.7368709"></polygon>
        <path d="M71.3882794,39.1112853 L70.7873295,24.0935176 C70.7873295,24.0935176 84.0082291,19.2878319 94.2243789,19.2878319 C108.166419,19.2878319 116.459528,24.0935176 116.459528,37.9098639 L116.459528,74.5532172 L126.074728,76.95606 L126.074728,83.5638778 L107.445279,84.1645885 L104.921289,75.7546386 C100.834829,79.8394714 93.6234289,85.3660099 85.2101291,85.3660099 C73.7920794,85.3660099 67.1816295,78.7581921 67.1816295,67.3446887 C67.1816295,53.5283423 77.9987293,48.7226567 94.8253289,48.7226567 L104.440529,48.7226567 L104.440529,39.1112853 C104.440529,31.9027568 100.233879,28.2984925 93.0224789,28.2984925 C85.8110791,28.2984925 80.8832892,30.1006247 80.8832892,30.1006247 L79.2006293,39.1112853 L71.3882794,39.1112853 Z M104.440529,56.5318959 L96.0272289,56.5318959 C84.0082291,56.5318959 79.4410093,59.5354494 79.4410093,66.743978 C79.4410093,72.1503743 82.8063292,75.7546386 88.2148791,75.7546386 C97.2291288,75.7546386 104.440529,66.1432672 104.440529,66.1432672 L104.440529,56.5318959 Z" id="path-2"></path>
        <path d="M143.422151,64.9418458 L135.008851,64.9418458 L135.008851,82.7228828 C135.008851,82.7228828 142.941391,85.3660099 153.998871,85.3660099 C168.421671,85.3660099 180.44067,78.63805 180.44067,64.8217037 C180.44067,44.2773974 146.907661,49.2032252 146.907661,36.3480161 C146.907661,30.2207668 151.474881,28.2984925 157.604571,28.2984925 C163.614071,28.2984925 167.339961,29.7401982 167.339961,29.7401982 L169.263001,39.1112853 L177.07535,39.1112853 L177.43592,22.8920962 C177.43592,22.8920962 166.378441,19.2878319 156.883431,19.2878319 C144.503861,19.2878319 134.888661,25.5352233 134.888661,38.030006 C134.888661,59.8958759 168.421671,53.8887688 168.421671,66.8641201 C168.421671,74.3129329 162.051601,76.3553493 154.840201,76.3553493 C148.349941,76.3553493 144.744241,75.27407 144.744241,75.27407 L143.422151,64.9418458 Z" id="path-3"></path>
        <path d="M197.788093,64.9418458 L189.374793,64.9418458 L189.374793,82.7228828 C189.374793,82.7228828 197.307333,85.3660099 208.364813,85.3660099 C222.787613,85.3660099 234.806612,78.63805 234.806612,64.8217037 C234.806612,44.2773974 201.273603,49.2032252 201.273603,36.3480161 C201.273603,30.2207668 205.840823,28.2984925 211.970513,28.2984925 C217.980013,28.2984925 221.705903,29.7401982 221.705903,29.7401982 L223.628943,39.1112853 L231.441292,39.1112853 L231.801862,22.8920962 C231.801862,22.8920962 220.744383,19.2878319 211.249373,19.2878319 C198.869803,19.2878319 189.254603,25.5352233 189.254603,38.030006 C189.254603,59.8958759 222.787613,53.8887688 222.787613,66.8641201 C222.787613,74.3129329 216.417543,76.3553493 209.206143,76.3553493 C202.715883,76.3553493 199.110183,75.27407 199.110183,75.27407 L197.788093,64.9418458 Z" id="path-4"></path>
        <path d="M0.224528296,96.7817931 C0.224528296,43.356358 43.5539989,0.0441396498 97.0037083,0.0441396498 L97.0037083,0.0441396498 C150.454914,0.0441396498 193.782888,43.356358 193.782888,96.7817931 L193.782888,96.7817931 C193.782888,150.210969 150.454914,193.523935 97.0037083,193.523935 L97.0037083,193.523935 C43.5539989,193.523935 0.224528296,150.210969 0.224528296,96.7817931" id="path-5"></path>
        <linearGradient x1="11.1115227%" y1="89.5594197%" x2="105.424225%" y2="-6.38012435%" id="linearGradient-7">
            <stop stop-color="#95CC28" offset="0%"></stop>
            <stop stop-color="#81CC2B" offset="100%"></stop>
        </linearGradient>
        <polygon id="path-8" points="0.309100621 116.776306 119.828506 116.776306 119.828506 0.45860348 0.309100621 0.45860348"></polygon>
        <polygon id="path-10" points="0.55832703 18.7496255 37.775389 18.7496255 37.775389 0.451122183 0.55832703 0.451122183"></polygon>
        <polygon id="path-12" points="0.547849043 50.6573553 119.457286 50.6573553 119.457286 0.454114702 0.547849043 0.454114702"></polygon>
        <polygon id="path-14" points="0.465522001 3.08902735 10.9255469 3.08902735 10.9255469 0.700249359 0.465522001 0.700249359"></polygon>
        <polygon id="path-16" points="0.606974828 5.91172055 12.3161255 5.91172055 12.3161255 0.157855358 0.606974828 0.157855358"></polygon>
        <polygon id="path-18" points="0.574792438 5.91172055 12.280201 5.91172055 12.280201 0.157855358 0.574792438 0.157855358"></polygon>
    </defs>
    <g id="Page-1" stroke="none" stroke-width="1" fill="none" fill-rule="evenodd">
        <g id="lass">
            <g id="Group-7" transform="translate(207.000000, 37.000000)">
                <g id="Group-4" transform="translate(240.806604, 77.992519)">
                    <g id="Path">
                        <use fill="#452A3C" fill-rule="evenodd" xlink:href="#path-1"></use>
                        <use fill="black" fill-opacity="1" xlink:href="#path-1"></use>
                    </g>
                    <g id="Combined-Shape">
                        <use fill="#452A3C" fill-rule="evenodd" xlink:href="#path-2"></use>
                        <use fill="black" fill-opacity="1" xlink:href="#path-2"></use>
                    </g>
                    <g id="Path">
                        <use fill="#452A3C" fill-rule="evenodd" xlink:href="#path-3"></use>
                        <use fill="black" fill-opacity="1" xlink:href="#path-3"></use>
                    </g>
                    <g id="Path">
                        <use fill="#452A3C" fill-rule="evenodd" xlink:href="#path-4"></use>
                        <use fill="black" fill-opacity="1" xlink:href="#path-4"></use>
                    </g>
                </g>
                <g id="Group-3">
                    <path d="M104.529897,224.68578 C47.2003385,224.68578 0.561320755,178.065333 0.561320755,120.759349 C0.561320755,63.4541135 47.2003385,16.8329177 104.529897,16.8329177 C161.858707,16.8329177 208.498473,63.4541135 208.498473,120.759349 C208.498473,178.065333 161.858707,224.68578 104.529897,224.68578" id="path642" fill="#452A3C" fill-rule="nonzero" transform="translate(104.529897, 120.759349) scale(-1, 1) rotate(-180.000000) translate(-104.529897, -120.759349) "></path>
                    <g id="g646-Clipped" transform="translate(104.405653, 120.729430) scale(-1, 1) rotate(-180.000000) translate(-104.405653, -120.729430) translate(7.297163, 23.940154)">
                        <mask id="mask-6" fill="white">
                            <use xlink:href="#path-5"></use>
                        </mask>
                        <g id="path648"></g>
                        <g id="g646" mask="url(#mask-6)" fill-rule="nonzero" fill="url(#linearGradient-7)">
                            <g id="g652">
                                <g id="g654">
                                    <path d="M0.224528296,96.7817931 C0.224528296,43.356358 43.5539989,0.0441396498 97.0037083,0.0441396498 L97.0037083,0.0441396498 C150.454914,0.0441396498 193.782888,43.356358 193.782888,96.7817931 L193.782888,96.7817931 C193.782888,150.210969 150.454914,193.523935 97.0037083,193.523935 L97.0037083,193.523935 C43.5539989,193.523935 0.224528296,150.210969 0.224528296,96.7817931" id="path662"></path>
                                </g>
                            </g>
                        </g>
                    </g>
                    <g id="g666-Clipped" transform="translate(105.528302, 110.816708) scale(-1, 1) rotate(-180.000000) translate(-105.528302, -110.816708) translate(-0.000000, 0.000000)">
                        <g id="g672" transform="translate(1.657985, 104.194557)" fill-rule="nonzero" fill="#452A3C">
                            <path d="M102.534589,0 C102.320538,0 102.109482,0.0209476304 101.901419,0.0613466319 C67.3240612,0.942643368 41.8071688,11.7082291 26.4636534,20.6117202 C17.7010625,25.6967575 11.2383897,30.7361588 7.3585407,34.0683283 C0.544855332,39.9216948 0.211805026,41.2406473 0.103283016,41.6738144 C-0.315088042,43.333166 0.600987406,45.0359091 2.21534586,45.6014951 C13.2307041,49.4625923 25.8005465,51.261096 41.7734895,51.261096 C52.1496905,51.261096 62.9786902,50.5069813 73.4521868,49.7775549 C83.4571677,49.080298 93.8026832,48.3605973 103.845834,48.2827918 C113.839588,48.3605973 124.185852,49.080298 134.190085,49.7775549 C144.66433,50.5069813 155.492581,51.261096 165.868782,51.261096 C181.840977,51.261096 194.410819,49.4633404 205.425429,45.6022432 C206.463498,45.2394004 207.251592,44.38354 207.530756,43.3211959 C207.809919,42.2581037 207.540485,41.1261835 206.815259,40.3009965 C206.463498,39.899999 197.992045,30.3695753 181.179367,20.6139646 C165.832109,11.7067329 140.310726,0.93815459 105.717651,0.0605985022 C105.516324,0.0209476304 105.311255,0 105.103941,0 C105.091966,0 103.820387,0.0216957601 103.820387,0.0216957601 C103.820387,0.0216957601 102.547312,0 102.534589,0" id="path674"></path>
                        </g>
                        <g id="g676" transform="translate(4.968206, 107.025629)" fill-rule="nonzero" fill="#51324B">
                            <path d="M0,39.6508718 C-0.00224528296,39.6538643 33.0932256,1.99975057 99.2242931,0.521446371 L99.2242931,0.475062332 C99.6561359,0.48029924 100.081243,0.490773055 100.510092,0.497506222 C100.939689,0.490773055 101.364048,0.48029924 101.796639,0.475062332 L101.796639,0.521446371 C167.929952,2.0004987 201.020184,39.65162 201.020184,39.65162 C171.182618,50.1089763 135.161544,42.4107221 100.510092,42.1458842 C65.8586399,42.4107221 29.8375653,50.1089763 0,39.6508718" id="path678"></path>
                        </g>
                        <g id="g680" transform="translate(35.438118, 56.194483)" fill="#452A3C">
                            <path d="M69.6037718,0 C37.5793009,0 19.0078171,4.69675799 9.38752807,15.2281792 C-1.63306914,27.2917699 0.06062264,45.8850363 2.20411944,69.4241878 L2.36128925,71.1501229 C6.43647783,116.048376 51.8839987,135.984535 68.4699039,135.984535 C76.7452685,135.984535 92.0461235,131.138151 105.276828,121.875558 C117.232211,113.50698 132.053324,98.4478778 134.766374,74.2369059 L135.007368,72.0987513 C137.611148,48.9695748 139.860921,28.994513 128.195928,15.9478799 C118.466368,5.06708217 99.8492302,0 69.6037718,0" id="path682"></path>
                        </g>
                        <g id="g684" transform="translate(38.791448, 59.011640)" fill="#A66757">
                            <path d="M65.1132059,130.17456 C79.0302182,130.17456 123.659708,113.692516 128.435424,71.08728 C133.211141,28.4857848 137.620877,0.17506234 66.2478222,0.17506234 C-5.12897471,0.17506234 -2.03946536,23.7194508 1.98632699,68.0633399 C6.01062249,112.405733 51.1894578,130.17456 65.1132059,130.17456" id="path686"></path>
                        </g>
                        <g id="g688" transform="translate(38.731124, 58.728174)">
                            <g id="g702">
                                <g id="g700-Clipped">
                                    <mask id="mask-9" fill="white">
                                        <use xlink:href="#path-8"></use>
                                    </mask>
                                    <g id="path692"></g>
                                    <g id="g700" opacity="0.19999701" mask="url(#mask-9)">
                                        <g transform="translate(-0.748428, 0.000000)" id="g698">
                                            <g transform="translate(0.445838, 0.458828)">
                                                <path d="M69.6037718,2.24438897 C-1.77227669,2.24438897 1.31723267,25.7887774 5.34302502,70.1319184 C7.25750296,91.2261823 18.4869115,106.303239 31.2326344,116.317703 C17.2931694,106.36683 4.41198102,90.6209454 2.34931441,67.8875295 C-1.67647795,23.5443884 -4.7659873,0 66.6100612,0 C94.5690731,0 110.897519,4.34588518 120.13162,12.1915209 C110.502349,5.76807966 94.7681549,2.24438897 69.6037718,2.24438897" id="path696" fill="#FDDC9C"></path>
                                            </g>
                                        </g>
                                    </g>
                                </g>
                            </g>
                        </g>
                        <g id="g704" transform="translate(51.735055, 3.602540)" fill-rule="nonzero" fill="#452A3C">
                            <path d="M105.528299,15.7107228 C104.522412,20.2346628 103.473117,23.8832912 102.388645,26.622942 C91.4660921,54.2379039 73.0143567,54.5917692 53.4639295,54.5917692 L52.9594892,54.5917692 C33.1478608,54.5491258 14.4641128,54.1458839 3.62688041,26.4172063 C2.5439056,23.6438897 1.5020943,19.9406479 0.50743395,15.3493762 C15.5755279,5.67456345 33.5033639,0.0620947615 52.7431936,0.0620947615 C72.2187781,0.0620947615 90.3464443,5.81595995 105.528299,15.7107228" id="path706"></path>
                        </g>
                        <g id="g708" transform="translate(55.733006, 2.932589)" fill-rule="nonzero" fill="#614755">
                            <path d="M98.0440227,14.2144635 C97.0516076,18.8947626 95.9686328,22.9152114 94.7973435,25.8740642 C84.8687023,50.9745623 68.6315643,51.4406471 48.9718667,51.4009962 C29.3136659,51.3568566 13.0548236,50.822692 3.22946533,25.6795505 C2.06116976,22.6885281 0.987176076,18.6187028 0.00748427654,13.8822939 C14.3211632,5.52493752 30.9721816,0.732418934 48.7450931,0.732418934 C66.7515141,0.732418934 83.604608,5.65361582 98.0440227,14.2144635" id="path710"></path>
                        </g>
                        <g id="g712" transform="translate(55.740715, 15.373911)" fill-rule="nonzero" fill="#6C5161">
                            <path d="M5.23899358,11.2219449 C15.0643518,36.362842 31.324691,36.8977547 50.9821434,36.9403981 C64.6506776,36.9695751 76.6651868,36.7518694 86.0557085,28.1805479 C76.3965012,38.7374055 63.6320676,38.9872808 48.9643824,38.9596 C29.3054332,38.9162085 13.0473393,38.3812958 3.22198105,13.2381543 C2.05368548,10.2471319 0.979691799,6.17730658 0,1.44089772 C0.722232686,1.01895259 1.44895594,0.606733152 2.18241504,0.202743137 C3.11720118,4.60698243 4.13655965,8.39625914 5.23899358,11.2219449" id="path714"></path>
                        </g>
                        <g id="g716" transform="translate(89.561711, 2.564360)" fill-rule="nonzero" fill="#FFFFFF">
                            <path d="M5.23899358,1.49625931 C10.1007796,0.743640879 9.84332051,0.352369068 14.9169116,0.352369068 C19.7293014,0.352369068 18.4704461,0.708478785 23.095729,1.38703238 L29.0831502,44.9745625 L0,44.9745625 L5.23899358,1.49625931 Z" id="path718"></path>
                        </g>
                        <g id="g720" transform="translate(66.287333, 0.012415)" fill-rule="nonzero" fill="#452A3C">
                            <path d="M30.6855338,0.748129657 C30.5306093,0.730922675 30.3711942,0.725685767 30.2117791,0.732418934 C30.2117791,0.732418934 29.6272571,0.761595991 29.4184458,0.774314195 C28.661037,0.822942623 27.9500307,1.15660845 27.4298735,1.70798001 L4.40898731,26.1194507 C3.39711312,27.1922686 3.31852822,28.8418945 4.2218804,30.0059843 L7.73799352,34.5366575 L1.58442134,38.2391512 C0.458037724,38.9177048 -0.0935534568,40.2508718 0.224528296,41.5256847 C0.496955962,42.623191 1.35839619,43.4566074 2.43014459,43.7124677 C2.67712572,43.8261834 3.68974834,44.3528667 5.91557218,46.223939 C7.06590548,47.1912706 8.34347149,48.3508716 9.7130941,49.6675798 C16.5664461,56.2316694 24.021534,63.1578538 24.0948799,63.2266817 C24.574622,63.6718189 25.1778547,63.9403974 25.8057855,64.0092253 C26.2361314,64.0563575 26.6784522,64.0114697 27.1028106,63.8663326 C28.1461188,63.5079785 28.909515,62.6064822 29.0876408,61.5179536 C29.1377854,61.2142129 29.5584018,58.4768065 29.0307603,55.8389013 L28.9072697,55.2261832 C27.5788106,48.676308 27.4268798,46.8119689 27.4538232,46.2822931 C27.6274584,42.8857845 27.8639616,39.472817 28.1595905,36.1339143 C29.2852257,23.385785 31.0447791,13.96384 32.3230935,8.30498732 C32.7235023,6.53266817 33.0490684,5.25261832 33.2511438,4.48952607 C33.4966281,3.56783033 33.2870684,2.58254358 32.6860809,1.84039896 C32.1853828,1.22244386 31.4638986,0.833416438 30.6855338,0.748129657" id="path722"></path>
                        </g>
                        <g id="g724" transform="translate(69.012133, 3.713637)" fill-rule="nonzero" fill="#6E5766">
                            <path d="M22.4528296,32.1695753 C22.1684271,35.3865328 21.9244397,38.8047372 21.7395781,42.4264329 C21.6340498,44.4359091 23.1121944,51.4182032 23.3704019,52.7244376 C23.8067353,54.9044874 23.4078233,57.3336644 23.4078233,57.3336644 C23.4078233,57.3336644 15.9759367,50.4291758 9.06345889,43.8097246 C7.49026396,42.2970064 6.19623255,41.140398 5.11849673,40.2329167 C1.46167921,37.1588519 0.404899361,37.1019941 0.404899361,37.1019941 L2.95928294,35.5623433 L9.44366014,31.6623433 L8.18630168,30.0403983 L3.8618867,24.470573 L5.23974201,23.0102239 L26.8835213,0.0598503726 C27.1334962,0.0441396498 27.383471,0.0336658346 27.6334459,0.0209476304 C27.4126597,0.854364068 27.0796094,2.17331665 26.6784522,3.94413955 C25.4555214,9.35835388 23.6136409,19.0189521 22.4528296,32.1695753" id="path726"></path>
                        </g>
                        <g id="g728" transform="translate(109.171040, 0.012415)" fill-rule="nonzero" fill="#452A3C">
                            <path d="M2.99371062,0.748129657 C3.14863514,0.730922675 3.30805023,0.725685767 3.46746532,0.732418934 C3.46746532,0.732418934 4.05198732,0.761595991 4.26079864,0.774314195 C5.01820742,0.822942623 5.72846527,1.15660845 6.24937091,1.70798001 L29.2702571,26.1194507 C30.2821313,27.1922686 30.3607162,28.8418945 29.457364,30.0059843 L25.9405025,34.5366575 L32.0948231,38.2391512 C33.2204583,38.9177048 33.7727979,40.2508718 33.4539677,41.5256847 C33.1822885,42.623191 32.3200998,43.4566074 31.2483514,43.7124677 C31.0013703,43.8261834 29.9894961,44.3528667 27.7636723,46.223939 C26.613339,47.1912706 25.335773,48.3508716 23.9654019,49.6675798 C17.1127983,56.2316694 9.65771045,63.1578538 9.58361611,63.2266817 C9.10387399,63.6718189 8.50138972,63.9403974 7.87345892,64.0092253 C7.44311302,64.0563575 7.00079228,64.0114697 6.5764338,63.8663326 C5.53312565,63.5079785 4.76972944,62.6064822 4.59160366,61.5179536 C4.54145901,61.2142129 4.12084266,58.4768065 4.64848416,55.8389013 L4.7712263,55.2261832 C6.09968538,48.676308 6.25236462,46.8119689 6.22542123,46.2822931 C6.05178601,42.8857845 5.81528287,39.472817 5.51965395,36.1339143 C4.39401876,23.385785 2.63446534,13.96384 1.35540248,8.30498732 C0.955742114,6.53266817 0.630176085,5.25261832 0.428100618,4.48952607 C0.182616348,3.56783033 0.391427663,2.58254358 0.99241507,1.84039896 C1.4938616,1.22244386 2.21459743,0.833416438 2.99371062,0.748129657" id="path730"></path>
                        </g>
                        <g id="g732" transform="translate(112.433735, 3.713637)" fill-rule="nonzero" fill="#6E5766">
                            <path d="M5.23899358,32.1695753 C5.52264766,35.3865328 5.76663508,38.8047372 5.95224513,42.4264329 C6.05777343,44.4359091 4.57962882,51.4182032 4.32067285,52.7244376 C3.88508795,54.9044874 4.28325147,57.3336644 4.28325147,57.3336644 C4.28325147,57.3336644 11.7158865,50.4291758 18.6276159,43.8097246 C20.2015592,42.2970064 21.4955907,41.140398 22.5725781,40.2329167 C26.230144,37.1588519 27.2869238,37.1019941 27.2869238,37.1019941 L24.7317918,35.5623433 L18.2474146,31.6623433 L19.5055215,30.0403983 L23.8299365,24.470573 L22.4513328,23.0102239 L0.808301867,0.0598503726 C0.55832703,0.0441396498 0.308352194,0.0336658346 0.058377357,0.0209476304 C0.279163515,0.854364068 0.612213821,2.17331665 1.01337104,3.94413955 C2.23630183,9.35835388 4.07818229,19.0189521 5.23899358,32.1695753" id="path734"></path>
                        </g>
                        <g id="g736" transform="translate(87.130070, 42.237900)" fill-rule="nonzero" fill="#452A3C">
                            <path d="M17.213836,0 C26.6530056,0.0201995007 34.0377413,5.75236893 34.0227727,13.0511219 L33.9920872,27.0643385 C33.9778671,34.3421438 26.5901377,40.0421436 17.1726725,40.0421436 C7.68710044,40.0234404 0.303861628,34.2927672 0.318830181,26.9940143 L0.346522004,12.9815458 C0.362238985,5.70149612 7.74996836,0 17.1644398,0 L17.213836,0 Z" id="path738"></path>
                        </g>
                        <g id="g740" transform="translate(90.479733, 45.500718)" fill-rule="nonzero" fill="#FDDC9C">
                            <path d="M0.748427654,9.72568554 C0.761150924,4.60698243 6.62882373,0.470573554 13.8556412,0.486284277 C21.0839554,0.50124687 26.9329176,4.66234402 26.9209427,9.77955088 L26.891754,23.7927675 C26.8812761,28.9114706 21.0158485,33.0478795 13.7837921,33.0299244 C6.56146524,33.0157099 0.708760989,28.8538646 0.719987403,23.7374059 L0.748427654,9.72568554 Z" id="path742"></path>
                        </g>
                        <g id="g744" transform="translate(82.697956, 28.935257)" fill-rule="nonzero" fill="#452A3C">
                            <path d="M2.99371062,0 C2.50049679,0 2.00877982,0.142892765 1.58292449,0.419700738 C0.862188658,0.89401494 0.428849046,1.70049871 0.428849046,2.56309221 L0.428849046,20.8615955 C0.428849046,21.7630917 0.901855323,22.5987526 1.67498109,23.0603486 C2.07988045,23.3027426 2.53716975,23.4269321 2.99371062,23.4269321 C3.40983639,23.4269321 3.82371689,23.3251864 4.20242128,23.1231914 L20.4807228,14.4276804 C20.612446,14.3865333 20.7381819,14.332668 20.8594272,14.2653363 L21.6033642,13.8695757 L38.9302129,23.1231914 C39.3074204,23.3251864 39.7227977,23.4269321 40.1374267,23.4269321 L40.2107726,23.4269321 C40.6680619,23.4269321 41.1231059,23.3027426 41.5280053,23.0633411 C42.3026279,22.6002488 42.7763826,21.764588 42.7763826,20.8615955 L42.7763826,2.56309221 C42.7763826,1.69825432 42.3407977,0.892518681 41.618565,0.419700738 C41.1934581,0.141396505 40.703238,0 40.2107726,0 C40.1419172,0 40.0760556,0.00149625931 40.0094455,0.00748129657 C39.7048355,0.0187032414 39.4039676,0.0860349106 39.1188166,0.210224434 L21.6018674,7.79551103 L4.08791185,0.210224434 C3.76084896,0.0673316691 3.41432696,0 3.06855338,0 L2.99371062,0 Z" id="path746"></path>
                        </g>
                        <g id="g748" transform="translate(85.414299, 31.055382)" fill-rule="nonzero" fill="#81CC2B">
                            <polygon id="path750" points="37.4213827 18.7032414 37.4213827 18.741396 18.8858234 8.84289255 16.9346725 9.88503716 16.8927606 9.86558579 0.27766666 18.741396 0.27766666 0.442892757 0.351760997 0.473566073 0.351760997 0.442892757 18.8858234 8.46733146 37.4213827 0.442892757 37.4213827 0.473566073 37.4947286 0.442892757 37.4947286 18.741396"></polygon>
                        </g>
                        <g id="g752" transform="translate(85.133639, 31.047377)">
                            <g id="g766">
                                <g id="g764-Clipped">
                                    <mask id="mask-11" fill="white">
                                        <use xlink:href="#path-10"></use>
                                    </mask>
                                    <g id="path756"></g>
                                    <g id="g764" opacity="0.19999701" mask="url(#mask-11)">
                                        <g transform="translate(-0.748428, 0.000000)" id="g762">
                                            <g transform="translate(0.575541, 0.326559)">
                                                <polygon id="path760" fill="#42BA3D" fill-rule="nonzero" points="2.24528296 0.748129657 2.24528296 17.414214 18.8611253 8.54064817 18.9022888 8.55710702 20.8526913 7.51496241 37.9482758 16.6458849 37.9482758 18.4226928 37.8749299 18.3845382 37.8749299 18.4226928 19.3393706 8.52493744 17.3882197 9.56633393 17.3463077 9.54763068 0.731213818 18.4226928 0.731213818 0.124189523 0.805308156 0.154862839 0.805308156 0.124189523"></polygon>
                                            </g>
                                        </g>
                                    </g>
                                </g>
                            </g>
                        </g>
                        <g id="g768" transform="translate(96.070263, 31.081716)" fill-rule="nonzero" fill="#452A3C">
                            <path d="M8.2327042,0 C3.91727034,0 0.405647789,3.86334155 0.405647789,8.61396487 C0.405647789,13.3608475 3.91727034,17.2226928 8.2327042,17.2226928 C12.5436475,17.2226928 16.05527,13.3608475 16.05527,8.61396487 C16.05527,3.86334155 12.5436475,0 8.2327042,0" id="path770"></path>
                        </g>
                        <g id="g772" transform="translate(98.333433, 32.962289)" fill-rule="nonzero" fill="#81CC2B">
                            <path d="M11.2264148,6.73316691 C11.2264148,3.38977548 8.8741067,0.683790507 5.96945897,0.683790507 C3.06331439,0.683790507 0.708760989,3.38977548 0.708760989,6.73316691 C0.708760989,10.0705733 3.06331439,12.7795508 5.96945897,12.7795508 C8.8741067,12.7795508 11.2264148,10.0705733 11.2264148,6.73316691" id="path774"></path>
                        </g>
                        <g id="g776" transform="translate(48.917824, 57.587725)" fill-rule="nonzero" fill="#452A3C">
                            <path d="M55.3836464,0 C85.8326771,0 110.605632,24.7615954 110.605632,55.1999986 L110.605632,82.7244368 C110.605632,113.161344 85.8326771,137.924435 55.3836464,137.924435 C24.9323704,137.924435 0.160163518,113.161344 0.160163518,82.7244368 L0.160163518,55.1999986 C0.160163518,24.7615954 24.9323704,0 55.3836464,0" id="path778"></path>
                        </g>
                        <g id="g780" transform="translate(52.721408, 61.166927)" fill-rule="nonzero" fill="#FDDC9C">
                            <path d="M0,51.6209463 C0,23.1456353 23.0919868,0.0591022429 51.5801371,0.0591022429 C80.066042,0.0591022429 103.158029,23.1456353 103.158029,51.6209463 L103.158029,79.1453846 C103.158029,107.621444 80.066042,130.704984 51.5801371,130.704984 C23.0919868,130.704984 0,107.621444 0,79.1453846 L0,51.6209463 Z" id="path782"></path>
                        </g>
                        <g id="g784" transform="translate(92.041626, 72.285106)" fill-rule="nonzero" fill="#452A3C">
                            <path d="M0.748427654,7.48129657 C1.06725783,7.75361577 1.46991191,7.90024918 1.8890314,7.9032417 C2.40394963,7.90398983 2.89641502,7.67581028 3.2369496,7.2852866 C3.263893,7.24788012 6.46641493,3.68004978 12.2629871,3.69276799 C18.4569744,3.70398993 20.9185529,6.84164571 21.1640372,7.17007463 C21.4925969,7.65561078 22.0396976,7.94438883 22.6137416,7.9436407 C22.9782258,7.94513696 23.32849,7.83890255 23.6241189,7.6309225 C24.0118044,7.36458834 24.2730057,6.96359085 24.357578,6.49900233 C24.4473893,6.03740633 24.3493453,5.56309213 24.0799113,5.18678291 C23.9429491,4.979551 20.6259177,0.172069821 12.269723,0.157107228 C4.78095586,0.142892765 0.71474841,4.78653355 0.554584892,4.98254352 C-0.0793333314,5.7187031 0.00224528296,6.82892751 0.748427654,7.48129657" id="path786"></path>
                        </g>
                        <g id="g788" transform="translate(121.001136, 106.472612)" fill-rule="nonzero" fill="#452A3C">
                            <path d="M11.9748425,6.73316691 C11.9748425,1.49775557 9.44740228,0.280548621 6.33394324,0.280548621 C3.21749049,0.280548621 0.696037718,1.49775557 0.696037718,6.73316691 C0.696037718,11.9685783 3.21749049,16.2134659 6.33394324,16.2134659 C9.44740228,16.2134659 11.9748425,11.9685783 11.9748425,6.73316691" id="path790"></path>
                        </g>
                        <g id="g792" transform="translate(75.625913, 106.472612)" fill-rule="nonzero" fill="#452A3C">
                            <path d="M0,6.73316691 C0,1.49775557 2.52669176,0.280548621 5.63865395,0.280548621 C8.75660355,0.280548621 11.2788047,1.49775557 11.2788047,6.73316691 C11.2788047,11.9685783 8.75660355,16.2134659 5.63865395,16.2134659 C2.52669176,16.2134659 0,11.9685783 0,6.73316691" id="path794"></path>
                        </g>
                        <g id="g796" transform="translate(121.907482, 125.831888)" fill-rule="nonzero" fill="#452A3C">
                            <path d="M0.748427654,0 C0.748427654,0 0.932540857,0.0733167064 1.21320123,0.232668323 C1.35390563,0.315710715 1.52754084,0.41521196 1.70566662,0.499750611 C1.89277354,0.58877804 2.06116976,0.691271803 2.28644648,0.781795492 C2.49376094,0.881296736 2.70257226,0.996508703 2.92635213,1.07506232 C3.14414458,1.17755608 3.37091815,1.23591019 3.5887106,1.31371568 C3.81249047,1.36009972 4.01980493,1.4379052 4.22562254,1.45211966 C4.33115084,1.46109722 4.43518228,1.4932668 4.53696844,1.4857855 L4.68964768,1.4932668 L4.76823259,1.49775557 L4.81089296,1.50374061 L4.82062252,1.50374061 L4.83409422,1.50374061 L4.83858478,1.50374061 L4.8415785,1.50523687 C4.7929307,1.50523687 4.95683635,1.50074809 4.73006277,1.51122191 L5.21878603,1.47755607 L5.34003131,1.47007478 C5.34976087,1.46408974 5.37670427,1.46109722 5.39242125,1.45511218 C5.42160993,1.44837902 5.46127659,1.43940146 5.49794955,1.4379052 C5.56381118,1.4379052 5.66110678,1.42144635 5.77561621,1.38778051 C5.87665394,1.35561094 5.9919118,1.34887777 6.09968538,1.31221942 C6.31074198,1.23591019 6.54425141,1.17605982 6.75605643,1.07281793 C6.98582372,0.996508703 7.19014447,0.876807958 7.40269793,0.781795492 C7.62049038,0.695760581 7.80460358,0.573067317 7.99171049,0.489276796 C8.18031426,0.387531162 8.3382325,0.300748122 8.47070419,0.232668323 C8.74986771,0.0778054843 8.93996833,0 8.93996833,0 C8.93996833,0 8.95793059,0.190024933 8.92874192,0.519950112 C8.90628909,0.688279285 8.89506267,0.897007459 8.81722619,1.10723189 C8.74986771,1.3294264 8.69448406,1.59576056 8.5575218,1.84713212 C8.31054067,2.3610972 7.89965389,2.94164581 7.25899982,3.41221937 C7.11455328,3.54014954 6.92145895,3.62394006 6.74183631,3.72867821 L6.46267279,3.87830414 L6.11166022,3.98753107 L5.75466023,4.09301735 C5.62218854,4.12967571 5.51216967,4.14837895 5.44106905,4.14837895 L4.95683635,4.20374054 L4.83858478,4.21122184 L4.83409422,4.21122184 L4.81912567,4.21122184 L4.80191183,4.20374054 L4.7577546,4.20224428 L4.67168542,4.19625925 L4.50777976,4.17905226 L4.17472946,4.14538643 C3.94496217,4.13341636 3.74812569,4.03017446 3.53482381,3.97406474 C3.32376721,3.92319192 3.12543388,3.83266823 2.9473081,3.72493756 C2.76843389,3.62094754 2.57533956,3.54014954 2.43089302,3.40773059 C1.79323266,2.93566077 1.38459116,2.35960094 1.13761003,1.84114709 C0.996905635,1.59576056 0.932540857,1.31371568 0.859194947,1.09451369 C0.779113188,0.87231918 0.779113188,0.680797988 0.76564149,0.519950112 C0.736452812,0.197506229 0.748427654,0 0.748427654,0" id="path798"></path>
                        </g>
                        <g id="g800" transform="translate(128.597976, 114.846652)" fill-rule="nonzero" fill="#452A3C">
                            <polygon id="path802" points="0 2.24438897 6.25086777 4.01895252 3.83269802 0.74289275"></polygon>
                        </g>
                        <g id="g804" transform="translate(73.267318, 114.846652)" fill-rule="nonzero" fill="#452A3C">
                            <polygon id="path806" points="6.73584889 2.24438897 0.48498112 4.01895252 2.9038993 0.74289275"></polygon>
                        </g>
                        <g id="g808" transform="translate(41.383178, 113.931240)" fill="#452A3C">
                            <path d="M29.9371062,8.97755589 C44.9864894,7.40573548 65.076533,10.1491269 76.005822,22.2471316 C86.6709161,5.84887766 120.752066,0.701745618 122.336488,0.472069814 C122.377651,0.466084776 122.421808,0.460099739 122.46372,0.455610961 C123.443412,0.353865328 124.417116,0.713715693 125.096689,1.43192016 C125.803953,2.18304234 126.102575,3.23117199 125.894513,4.24189516 L116.960532,47.7441385 C116.755462,48.7421434 116.081878,49.5815449 115.150834,49.997505 L89.5920292,61.4259336 C89.4909915,61.4715695 89.3884569,61.5112204 89.2829286,61.5463825 L57.813791,71.8451354 C57.5997407,71.9162077 57.3789545,71.9633398 57.15742,71.9857837 C56.6889042,72.0344122 56.2099105,71.9783024 55.7623508,71.8182027 L10.1614023,55.5074799 C9.09713814,55.12743 8.31727652,54.2102231 8.1137042,53.0992505 L4.40374832,32.889276 L2.37550937,27.390523 C2.06940246,26.8174557 1.84188046,26.0932662 1.5020943,24.9650867 C1.38758487,24.5835405 1.21993708,24.0276802 1.12713205,23.778553 C0.452050303,22.5875306 0.613710676,21.0770568 1.56870436,20.0551117 C6.83314448,14.4231917 17.4391128,10.2800496 29.9371062,8.97755589 C29.9371062,8.97755589 29.9363577,8.97755589 29.9371062,8.97755589" id="path810"></path>
                        </g>
                        <g id="g812" transform="translate(45.128235, 117.495105)" fill="#A66757">
                            <path d="M1.49685531,22.4438897 L1.49535845,22.4438897 L3.72492444,28.4850367 L7.48427654,48.9635898 L53.0829798,65.2735645 L84.5528658,54.9725672 L110.113167,43.5441386 L119.047896,0.0418952608 C119.047896,0.0418952608 78.4000421,5.95436394 72.876646,24.776558 C58.9124828,1.84488773 12.4583267,5.46957592 0.138459116,18.6523686 C0.481987409,19.1139646 1.13761003,22.0077301 1.49685531,22.4438897" id="path814"></path>
                        </g>
                        <g id="g816" transform="translate(44.718546, 117.082287)">
                            <g id="g834">
                                <g id="g832-Clipped">
                                    <mask id="mask-13" fill="white">
                                        <use xlink:href="#path-12"></use>
                                    </mask>
                                    <g id="path820"></g>
                                    <g id="g832" opacity="0.19999701" mask="url(#mask-13)">
                                        <g transform="translate(-0.748428, -0.748130)">
                                            <g id="g826" transform="translate(0.579957, 8.686085)">
                                                <path d="M4.49056593,13.4663338 C4.83334579,13.9279298 5.48971684,16.8209472 5.84896212,17.2578549 L5.84746526,17.2578549 L8.07628282,23.2990019 L11.6417922,42.7196997 L8.06206269,41.4389017 L4.30271058,20.9603486 L2.07389303,14.9184535 L2.07464146,14.9184535 C1.71539618,14.4822939 1.05977356,11.5885284 0.716245265,11.1269324 C11.2615909,-0.155610969 46.8059171,-4.43416448 65.5884575,8.94389005 C46.1630177,-1.52169572 14.3653204,2.90049868 4.49056593,13.4663338" id="path824" fill="#FDDC9C"></path>
                                            </g>
                                            <g id="g830" transform="translate(74.066571, 0.596185)">
                                                <path d="M3.74213827,27.6807973 C2.83429553,26.1890268 1.78649681,24.8117201 0.619698098,23.5406478 C8.10247778,6.14064823 46.139068,0.606733152 46.139068,0.606733152 L45.4961687,3.74064829 C34.8138608,5.88927666 8.1406476,12.6920196 3.74213827,27.6807973" id="path828" fill="#FDDC9C"></path>
                                            </g>
                                        </g>
                                    </g>
                                </g>
                            </g>
                        </g>
                        <g id="g836" transform="translate(48.318557, 161.671264)" fill-rule="nonzero" fill="#452A3C">
                            <path d="M2.99371062,0.748129657 C1.30151569,1.23216955 0.0576289294,2.78154607 0.0344276721,4.62718193 L0.0284402509,4.84862831 C0.021704402,5.0401495 0.0157169807,5.23017443 0.017213836,5.42394001 C0.082327042,39.9044878 18.2017606,58.4977541 52.4153823,59.1852853 C60.6712878,59.350622 68.1069165,58.5052354 74.5171994,56.6708215 C96.1722051,50.4725673 107.121702,33.1578545 107.064821,5.20249364 C107.066318,5.01845374 107.058834,4.7955111 107.050601,4.57556098 L107.043117,4.37581036 C106.987733,2.15985032 105.170551,0.391271811 102.951463,0.394264329 L4.11260996,0.591022429 C3.72342758,0.591770559 3.34846533,0.647132153 2.99371062,0.748129657" id="path838"></path>
                        </g>
                        <g id="g840" transform="translate(51.024647, 165.924755)" fill-rule="nonzero" fill="#614755">
                            <path d="M101.037733,0 C101.045218,0.245386528 101.060935,0.484788018 101.059438,0.733915194 C101.108086,24.8932662 92.1606329,51.7002481 49.7906466,50.8496247 C10.38144,50.0566072 0.65711948,25.5374058 0.610716966,1.37805483 C0.609220111,1.13117204 0.624937091,0.891770551 0.627182374,0.645635894 L101.037733,0 Z" id="path842"></path>
                        </g>
                        <g id="g844" transform="translate(64.891365, 165.491513)" fill-rule="nonzero" fill="#806B72">
                            <path d="M33.6792444,49.3765574 C75.3539415,50.2144626 84.6935702,24.2910218 84.9420482,0.449625924 L87.1708657,0.433167071 C87.17835,0.678553599 87.194067,0.918703219 87.1925701,1.16783039 C87.2412179,25.3271814 78.2937653,52.1341633 35.923779,51.2827917 C19.2892259,50.9483778 7.94381112,46.3862831 0.382446531,39.4084778 C7.88992433,45.2999989 18.6133958,49.0750611 33.6792444,49.3765574" id="path846"></path>
                        </g>
                        <g id="g848" transform="translate(47.385942, 159.119319)" fill-rule="nonzero" fill="#452A3C">
                            <path d="M2.99371062,0.748129657 C1.30151569,1.23216955 0.0576289294,2.78004981 0.0351760997,4.62418941 L0.0276918232,4.84713205 C0.0209559743,5.04688267 0.0149685531,5.2443889 0.0157169807,5.44563577 C0.0321823891,13.928678 1.21320123,21.0441391 3.62688041,27.1780542 C4.17173574,28.5635903 5.42834578,29.542892 6.90649039,29.7336651 C23.5657415,31.8845379 39.8642506,32.9812959 55.3522125,32.9947623 C70.6987215,33.0089767 86.6761551,31.8553608 102.843689,29.5675803 C103.03379,29.5413958 103.217903,29.5009968 103.397526,29.450124 C104.696796,29.0783035 105.74235,28.0802985 106.162966,26.7695754 C108.069211,20.8137152 108.949362,13.9653363 108.9314,5.21371558 C108.9314,5.01471309 108.924664,4.79251858 108.915683,4.5710722 L108.908199,4.36533655 C108.848324,2.1493765 107.032639,0.386783033 104.816545,0.391271811 L4.1111131,0.591022429 C3.72342758,0.591770559 3.34846533,0.646384024 2.99371062,0.748129657" id="path850"></path>
                        </g>
                        <g id="g852" transform="translate(51.488373, 163.044007)" fill-rule="nonzero" fill="#7FCB2B">
                            <path d="M5.42101086e-20,1.49625931 C-0.00224528296,1.24413962 0.0142201254,0.999501222 0.017213836,0.750374046 L100.721897,0.549875298 C100.728633,0.799002474 100.745098,1.04364087 100.743601,1.2965087 C100.757821,8.53990004 100.136626,15.4556106 98.1690101,21.5999995 C83.3905577,23.6910219 67.6024763,25.0002488 51.2530742,24.9852862 C34.7240494,24.9718198 18.5677417,23.7261839 3.3260125,21.7586029 C0.952748404,15.7271817 0.0142201254,8.86458831 5.42101086e-20,1.49625931" id="path854"></path>
                        </g>
                        <g id="g856" transform="translate(0.513040, 132.192487)" fill-rule="nonzero" fill="#452A3C">
                            <path d="M109.270438,0 C107.900815,0 106.531192,0.0052369076 105.166809,0.0157107228 C103.851073,0.0052369076 102.485941,0 101.114073,0 C61.2962249,0 28.205993,4.52169565 2.76020119,13.4416455 C1.62333958,13.8389024 0.793333314,14.8241892 0.59350313,16.0122191 C0.393672946,17.1995008 0.855452809,18.4024933 1.79922008,19.150623 C3.2152452,20.2750618 37.164672,46.621944 103.292746,48.237904 C103.494821,48.2775549 103.700639,48.2992507 103.908702,48.2992507 C103.922922,48.2992507 105.192255,48.2760586 105.192255,48.2760586 C105.192255,48.2760586 106.463834,48.2992507 106.478802,48.2992507 C106.693601,48.2992507 106.906903,48.2775549 107.114217,48.237904 C173.227323,46.6159589 207.170014,20.2750618 208.586039,19.150623 C209.529058,18.4024933 209.990838,17.1995008 209.791007,16.0122191 C209.591926,14.8241892 208.761919,13.8389024 207.624309,13.4416455 C182.180763,4.52319191 149.08604,0 109.273431,0 L109.270438,0 Z" id="path858"></path>
                        </g>
                        <g id="g860" transform="translate(4.218655, 135.287274)" fill-rule="nonzero" fill="#614755">
                            <path d="M202.823894,13.4663338 C202.823894,13.4663338 168.90665,40.3720688 102.772589,41.8496249 L102.772589,41.8982533 C102.339997,41.8922683 101.916387,41.8810463 101.48679,41.8750613 C101.057941,41.8810463 100.632834,41.8922683 100.200991,41.8982533 L100.200991,41.8496249 C34.0676784,40.3720688 0.149685531,13.4663338 0.149685531,13.4663338 C29.9872508,3.00822935 66.8345895,-0.0389027422 101.48679,0.227431416 C136.13899,-0.0389027422 172.986329,3.00822935 202.823894,13.4663338" id="path862"></path>
                        </g>
                        <g id="g864" transform="translate(98.605337, 91.645879)">
                            <g id="g878">
                                <g id="g876-Clipped">
                                    <mask id="mask-15" fill="white">
                                        <use xlink:href="#path-14"></use>
                                    </mask>
                                    <g id="path868"></g>
                                    <g id="g876" opacity="0.39999402" mask="url(#mask-15)" fill-rule="nonzero" fill="#C0935C">
                                        <g id="g874" transform="translate(0.465223, 0.512843)">
                                            <path d="M0,2.24438897 C0,2.24438897 7.97075452,1.41695757 10.4600249,2.57581041 C10.4600249,2.57581041 4.81688038,-2.5705735 0,2.24438897" id="path872"></path>
                                        </g>
                                    </g>
                                </g>
                            </g>
                        </g>
                        <g id="g880" transform="translate(69.416658, 96.882787)">
                            <g id="g894">
                                <g id="g892-Clipped">
                                    <mask id="mask-17" fill="white">
                                        <use xlink:href="#path-16"></use>
                                    </mask>
                                    <g id="path884"></g>
                                    <g id="g892" opacity="0.80000299" mask="url(#mask-17)" fill-rule="nonzero" fill="#F577C1">
                                        <g id="g890" transform="translate(0.340984, 0.043092)">
                                            <path d="M11.9748425,2.99251863 C11.9748425,1.40274311 9.35534568,0.114463838 6.12138978,0.114463838 C2.88743389,0.114463838 0.265691817,1.40274311 0.265691817,2.99251863 C0.265691817,4.58004976 2.88743389,5.86907716 6.12138978,5.86907716 C9.35534568,5.86907716 11.9748425,4.58004976 11.9748425,2.99251863" id="path888"></path>
                                        </g>
                                    </g>
                                </g>
                            </g>
                        </g>
                        <g id="g896" transform="translate(126.297160, 96.882787)">
                            <g id="g910">
                                <g id="g908-Clipped">
                                    <mask id="mask-19" fill="white">
                                        <use xlink:href="#path-18"></use>
                                    </mask>
                                    <g id="path900"></g>
                                    <g id="g908" opacity="0.80000299" mask="url(#mask-19)" fill-rule="nonzero" fill="#F577C1">
                                        <g id="g906" transform="translate(0.305508, 0.043092)">
                                            <path d="M11.9748425,2.99251863 C11.9748425,1.40274311 9.35384882,0.114463838 6.12064136,0.114463838 C2.88818232,0.114463838 0.268685528,1.40274311 0.268685528,2.99251863 C0.268685528,4.58004976 2.88818232,5.86907716 6.12064136,5.86907716 C9.35384882,5.86907716 11.9748425,4.58004976 11.9748425,2.99251863" id="path904"></path>
                                        </g>
                                    </g>
                                </g>
                            </g>
                        </g>
                    </g>
                </g>
                <path d="M182.146618,208.167082 L182.235799,207.635516 L182.971549,207.481953 L183.462049,204.351621 L182.648265,204.351621 L182.391868,205.154876 L181.867925,205.154876 L182.102027,203.678304 L185.869958,203.678304 L185.635856,205.154876 L185.111913,205.154876 L185.111913,204.351621 L184.298129,204.351621 L183.807629,207.481953 L184.498788,207.635516 L184.409606,208.167082 L182.146618,208.167082 Z M189.526412,207.481953 L189.92773,204.906812 L188.623446,206.891324 L188.054912,206.9622 L187.363753,204.954062 L186.973583,207.481953 L187.631298,207.635516 L187.542117,208.167082 L185.61356,208.167082 L185.691594,207.635516 L186.293571,207.481953 L186.784071,204.327996 L186.226685,204.245308 L186.304719,203.713742 L187.831958,203.678304 L188.534264,205.934506 L189.950025,203.713742 L191.410377,203.678304 L191.332343,204.20987 L190.752662,204.327996 L190.262162,207.481953 L190.786105,207.635516 L190.696923,208.167082 L188.790662,208.167082 L188.879844,207.635516 L189.526412,207.481953 Z" id="™" fill="#452A3C"></path>
            </g>
            <rect id="Rectangle" x="0" y="0" width="890" height="300"></rect>
        </g>
    </g>
</svg>